<svg version="1.1" xmlns="http://www.w3.org/2000/svg" xmlns:xlink="http://www.w3.org/1999/xlink" width="500" height="500" viewBox="0,0,256,256"><defs><clipPath id="clip-1"><path d="M50.92188,149h286.5v174h-286.5zM50.92188,149" id="40db40fc98" fill="none"></path></clipPath><clipPath id="clip-2"><path d="M50.92188,93h286.5v174h-286.5zM50.92188,93" id="893f963160" fill="none"></path></clipPath><clipPath id="clip-3"><path d="M50.92188,36h286.5v174h-286.5zM50.92188,36" id="54baf9ddf8" fill="none"></path></clipPath><clipPath id="clip-4"><path d="M50.92188,184h286.5v35h-286.5zM50.92188,184" id="5965edc38f" fill="none"></path></clipPath><clipPath id="clip-5"><path d="M50.92188,241h286.5v35h-286.5zM50.92188,241" id="c2fdbd343f" fill="none"></path></clipPath><clipPath id="clip-6"><path d="M243.99219,102.0625h33.75v33.75h-33.75zM243.99219,102.0625" id="83dc7ef98e" fill="none"></path></clipPath><clipPath id="clip-7"><path d="M107.80078,118.79688h33.75v33.75h-33.75zM107.80078,118.79688" id="07680bd510" fill="none"></path></clipPath></defs><g fill="none" fill-rule="nonzero" stroke="none" stroke-width="1" stroke-linecap="butt" stroke-linejoin="miter" stroke-miterlimit="10" stroke-dasharray="" stroke-dashoffset="0" font-family="none" font-weight="none" font-size="none" text-anchor="none" style="mix-blend-mode: normal"><g transform="scale(0.68267,0.68267)"><rect x="-37.5" y="-37.5" width="450" height="449.99999" fill="#ffffff"></rect><rect x="-37.5" y="-37.5" width="450" height="449.99999" fill="#ffffff"></rect><g clip-path="url(#clip-1)"><path d="M337.42188,174.74609c0,41.23047 0,81.86328 0,123.09375c0,8.96484 -7.16406,13.74609 -16.11719,11.35547c-84.75391,-19.12109 -169.51172,27.48438 -254.86328,8.96094c-8.35937,-2.39062 -15.51953,-11.94922 -15.51953,-20.91406c0,-40.63281 0,-81.86328 0,-122.49609c0,-8.96484 7.16016,-13.74609 16.11328,-11.35547c84.75781,19.12109 169.51563,-27.48828 254.86719,-8.96094c8.35547,1.78906 15.51953,11.35156 15.51953,20.31641zM337.42188,174.74609" fill="#ef4444"></path></g><path d="M71.21484,274.53516c0,-20.91406 0,-41.82812 0,-62.14453c13.13281,2.39063 23.875,-7.76953 23.875,-20.91406c64.46094,4.78125 129.52344,-20.31641 193.98438,-16.73047c0,13.14453 10.74219,24.5 23.875,26.28906c0,20.91797 0,41.83203 0,62.14844c-13.13281,-2.39062 -23.875,8.36328 -23.875,21.51172c-64.46094,-3.58594 -128.92578,21.51172 -193.98438,16.73047c0,-13.14453 -10.14844,-24.5 -23.875,-26.89062zM71.21484,274.53516" fill="#f2f2f2"></path><path d="M136.27344,245.85156c0,4.78125 -4.17578,9.5625 -8.95313,9.5625c-4.77344,0 -8.95312,-3.58594 -8.95312,-8.36719c0,-4.77734 4.17969,-8.96094 8.95312,-9.55859c4.77734,0 8.95313,3.58594 8.95313,8.36328zM136.27344,245.85156" fill="#ef4444"></path><path d="M136.27344,245.85156c0,4.78125 -4.17578,9.5625 -8.95313,9.5625c-4.77344,0 -8.95312,-3.58594 -8.95312,-8.36719c0,-4.77734 4.17969,-8.96094 8.95312,-9.55859c4.77734,0 8.95313,3.58594 8.95313,8.36328zM136.27344,245.85156" fill="#ef4444"></path><path d="M266.39453,229.12109c0,4.78125 -4.17969,8.96484 -8.95312,9.5625c-4.77734,0.59766 -8.95312,-3.58594 -8.95312,-8.36719c0,-4.78125 4.17578,-9.55859 8.95312,-9.55859c5.37109,0 8.95313,3.58203 8.95313,8.36328zM266.39453,229.12109" fill="#ef4444"></path><path d="M227,233.30469c0,24.5 -15.51953,46.01172 -34.62109,49c-2.38672,0.59766 -4.77344,0.59766 -7.16016,0c-15.51953,-1.79297 -27.45703,-17.92578 -27.45703,-38.83984c0,-0.59766 0,-1.79297 0,-2.39062c1.19531,-23.30469 16.11719,-43.62109 34.61719,-46.60937c19.10156,-2.98828 34.62109,14.33984 34.62109,38.83984zM227,233.30469" fill="#ef4444"></path><path d="M189.99219,256.01172c0,-5.37891 0,-10.16016 0,-15.53516c-4.77344,-0.59766 -8.35547,-2.39062 -10.74219,-4.78125c-2.38672,-2.39062 -3.58203,-5.37891 -3.58203,-9.5625c0,-4.17969 1.19531,-7.76562 3.58203,-10.75391c2.38672,-2.98828 5.96875,-5.37891 10.14453,-6.57422c0,-1.19531 0,-2.39063 0,-3.58594c1.79297,0 3.58203,-0.59766 5.375,-0.59766c0,1.19531 0,2.39063 0,3.58594c4.17578,0 7.16016,0.59766 9.54688,2.39063c2.39063,1.79297 3.58203,4.78125 4.17969,8.36719c-2.98437,0.59766 -5.96875,1.79297 -9.55078,2.98828c-0.59766,-2.98828 -1.78906,-4.78125 -4.17578,-5.37891c0,4.78125 0,9.55859 0,14.33984c5.96875,0.59766 10.14453,1.79297 11.9375,4.18359c2.38672,2.39063 2.98438,5.37891 2.98438,9.5625c0,4.17969 -1.19531,8.36328 -4.17969,11.94922c-2.38672,3.58594 -6.56641,5.97656 -11.33984,7.17188c0,2.39063 0,4.77734 0,7.16797c-1.79297,0 -3.58203,0.59766 -5.37109,0.59766c0,-2.39062 0,-4.17969 0,-6.57031c-4.17969,0 -7.76172,-0.59766 -10.14844,-2.98828c-2.38672,-2.39062 -4.17969,-5.97656 -5.37109,-10.16016c2.98438,-0.59766 6.56641,-1.79297 9.55078,-2.39062c0.59375,1.79297 1.19141,3.58594 2.38672,4.78125c2.38672,0.59766 3.58203,1.79297 4.77344,1.79297zM189.99219,217.76953c-1.19141,0.59766 -2.38672,1.79297 -3.58203,2.98828c-0.59375,1.19531 -1.19141,2.38672 -1.19141,4.17969c0,1.19531 0.59766,2.39063 1.19141,3.58594c0.59766,1.19531 1.79297,1.79297 3.58203,2.39062c0,-4.78125 0,-8.96094 0,-13.14453zM195.36328,256.01172c1.79297,-0.59766 3.58203,-1.79297 4.77734,-2.98828c1.19141,-1.79297 1.78906,-2.98828 1.78906,-5.37891c0,-1.79297 -0.59766,-2.98437 -1.19141,-4.17969c-1.19531,-1.19531 -2.39062,-1.79297 -4.77734,-1.79297c-0.59766,4.77734 -0.59766,9.55859 -0.59766,14.33984zM195.36328,256.01172" fill="#ffffff"></path><g clip-path="url(#clip-2)"><path d="M337.42188,117.97656v123.09766c0,8.96094 -7.16406,13.74219 -16.11719,11.94922c-84.75391,-19.12109 -169.51172,27.48828 -254.86328,8.96484c-8.35937,-2.39062 -15.51953,-11.95312 -15.51953,-20.91406v-123.09766c0,-8.96094 7.16016,-13.74219 16.11328,-11.35156c84.75781,19.12109 169.51563,-27.48828 254.86719,-8.36719c8.35547,1.19531 15.51953,10.75781 15.51953,19.71875zM337.42188,117.97656" fill="#ef4444"></path></g><path d="M71.21484,218.36719c0,-20.91406 0,-41.82813 0,-62.14844c13.13281,2.39063 23.875,-7.76562 23.875,-20.91406c64.46094,4.78125 129.52344,-20.31641 193.98438,-16.73047c0,13.14844 10.74219,24.5 23.875,26.29297c0,20.91406 0,41.82812 0,62.14453c-13.13281,-2.39062 -23.875,8.36719 -23.875,21.51172c-64.46094,-3.58594 -128.92578,20.91406 -193.98438,16.73437c0,-13.14844 -10.14844,-24.5 -23.875,-26.89062zM71.21484,218.36719" fill="#f2f2f2"></path><path d="M136.27344,189.68359c0,4.78125 -4.17578,9.5625 -8.95313,9.5625c-4.77344,0 -8.95312,-3.58594 -8.95312,-8.36719c0,-4.78125 4.17969,-8.96484 8.95312,-9.5625c4.77734,-0.59766 8.95313,2.98828 8.95313,8.36719zM136.27344,189.68359" fill="#ef4444"></path><path d="M136.27344,189.68359c0,4.78125 -4.17578,9.5625 -8.95313,9.5625c-4.77344,0 -8.95312,-3.58594 -8.95312,-8.36719c0,-4.78125 4.17969,-8.96484 8.95312,-9.5625c4.77734,-0.59766 8.95313,2.98828 8.95313,8.36719zM136.27344,189.68359" fill="#ef4444"></path><path d="M266.39453,172.95313c0,4.78125 -4.17969,8.96094 -8.95312,9.55859c-4.77734,0.59766 -8.95312,-3.58594 -8.95312,-8.36328c0,-4.78125 4.17578,-9.5625 8.95312,-9.5625c5.37109,-0.59766 8.95313,3.58594 8.95313,8.36719zM266.39453,172.95313" fill="#ef4444"></path><path d="M227,176.53906c0,24.49609 -15.51953,46.01172 -34.62109,48.99609c-2.38672,0.59766 -4.77344,0.59766 -7.16016,0c-15.51953,-1.79297 -27.45703,-17.92578 -27.45703,-38.83984c0,-0.59766 0,-1.79297 0,-2.39062c1.19531,-23.30469 16.11719,-43.62109 34.61719,-46.60938c19.10156,-2.98828 34.62109,14.34375 34.62109,38.84375zM227,176.53906" fill="#ef4444"></path><path d="M207.30078,178.92578c-1.78906,-2.38672 -5.96875,-3.58203 -11.9375,-4.17969v-14.34375c2.39063,0.59766 3.58203,2.39063 4.17969,5.37891c2.98438,-0.59766 5.96875,-1.79297 9.55078,-2.39062c-0.59766,-3.58594 -2.38672,-6.57422 -4.17969,-8.36328c-2.38672,-1.79297 -5.37109,-2.39062 -9.55078,-2.39062v-3.58594c-1.78906,0 -3.57812,0.59766 -5.37109,0.59766v3.58594c-4.17578,1.19531 -7.75781,2.98438 -10.14453,6.57031c-2.39062,2.98828 -3.58203,6.57422 -3.58203,10.75781c0,4.18359 1.19141,7.17188 3.58203,9.55859c2.38672,2.39063 5.96875,4.18359 10.74219,4.78125v15.53516c-1.19531,-0.59375 -2.38672,-1.19141 -3.58203,-2.38672c-1.19141,-1.19531 -1.78906,-2.98828 -2.38672,-4.78125c-2.98437,1.19531 -6.56641,1.79297 -9.55078,2.39063c0.59766,4.77734 2.38672,8.36328 4.77734,10.15625c2.38672,2.39063 5.96875,2.98828 10.14453,2.98828v6.57422c1.79297,0 3.58203,-0.59766 5.37109,-0.59766v-6.57422c4.77734,-1.79297 8.35938,-4.18359 11.34375,-7.17187c2.98438,-3.58203 4.17578,-7.16797 4.17578,-11.94922c-0.59766,-4.78125 -1.78906,-7.76953 -3.58203,-10.16016zM186.41016,171.75781c-0.59375,-1.19531 -1.19141,-2.39062 -1.19141,-3.58594c0,-1.19531 0.59766,-2.98828 1.19141,-4.18359c0.59766,-1.19531 1.79297,-2.39062 3.58203,-2.98828v12.55078c-1.78906,0 -2.98438,-1.19531 -3.58203,-1.79297zM199.54297,196.25781c-1.19531,1.79297 -2.38672,2.39063 -4.77344,2.98828v-14.34375c2.38672,0.59766 3.57813,1.19531 4.77344,1.79297c1.19531,1.19531 1.19531,2.39063 1.19531,4.18359c0.59375,1.79297 0,3.58594 -1.19531,5.37891zM199.54297,196.25781" fill="#ffffff"></path><g clip-path="url(#clip-3)"><path d="M337.42188,61.80859c0,41.23047 0,81.86328 0,123.09375c0,8.96484 -7.16406,13.74609 -16.11719,11.35547c-84.75391,-19.12109 -169.51172,27.48438 -254.86328,8.96094c-8.35937,-2.39062 -15.51953,-11.94922 -15.51953,-20.91406c0,-40.63281 0,-81.86328 0,-122.49609c0,-8.96484 7.16016,-13.74609 16.11328,-11.95312c84.75781,19.12109 169.51563,-27.48828 254.86719,-8.96094c8.35547,2.38672 15.51953,11.94922 15.51953,20.91406zM337.42188,61.80859" fill="#ef4444"></path></g><path d="M71.21484,161.59766c0,-20.91406 0,-41.82812 0,-62.14453c13.13281,2.39063 23.875,-7.76953 23.875,-20.91406c65.05859,4.18359 129.52344,-20.31641 194.58203,-17.32812c0,13.14453 10.74219,24.5 23.875,26.29297c0,20.91406 0,41.82813 0,62.14453c-13.13281,-2.39063 -23.875,8.36328 -23.875,21.51172c-64.46484,-3.58594 -129.52344,21.51172 -193.98437,16.73047c-0.59766,-12.54687 -10.74609,-23.90234 -24.47266,-26.29297zM71.21484,161.59766" fill="#f2f2f2"></path><path d="M136.27344,132.91406c0,4.78125 -4.17578,9.5625 -8.95313,9.5625c-4.77344,0 -8.95312,-3.58594 -8.95312,-8.36719c0,-4.77734 4.17969,-8.96094 8.95312,-9.55859c4.77734,0 8.95313,3.58594 8.95313,8.36328zM136.27344,132.91406" fill="#ef4444"></path><path d="M136.27344,132.91406c0,4.78125 -4.17578,9.5625 -8.95313,9.5625c-4.77344,0 -8.95312,-3.58594 -8.95312,-8.36719c0,-4.77734 4.17969,-8.96094 8.95312,-9.55859c4.77734,0 8.95313,3.58594 8.95313,8.36328zM136.27344,132.91406" fill="#ef4444"></path><path d="M266.39453,116.18359c0,4.78125 -4.17969,8.96484 -8.95312,9.5625c-4.77734,0.59766 -8.95312,-3.58594 -8.95312,-8.36719c0,-4.78125 4.17578,-9.55859 8.95312,-9.55859c5.37109,0 8.95313,3.58203 8.95313,8.36328zM266.39453,116.18359" fill="#ef4444"></path><path d="M227,120.36719c0,24.5 -15.51953,46.01172 -34.62109,49c-2.38672,0.59766 -4.77344,0.59766 -7.16016,0c-15.51953,-1.79297 -27.45703,-17.92578 -27.45703,-38.83984c0,-0.59766 0,-1.79297 0,-2.39062c1.19531,-23.30469 16.11719,-43.62109 34.61719,-46.60937c19.10156,-2.98828 34.62109,14.33984 34.62109,38.83984zM227,120.36719" fill="#ef4444"></path><path d="M189.99219,143.07422c0,-5.37891 0,-10.16016 0,-15.53516c-4.77344,-0.59766 -8.35547,-2.39062 -10.74219,-4.78125c-2.38672,-2.39062 -3.58203,-5.37891 -3.58203,-9.5625c0,-4.17969 1.19531,-7.76562 3.58203,-10.75391c2.38672,-2.98828 5.96875,-5.37891 10.14453,-6.57422c0,-1.19531 0,-2.39063 0,-3.58594c1.79297,0 3.58203,-0.59766 5.375,-0.59766c0,1.19531 0,2.39063 0,3.58594c4.17578,0 7.16016,0.59766 9.54688,2.39063c2.39063,1.79297 3.58203,4.78125 4.17969,8.36719c-2.98437,0.59766 -5.96875,1.79297 -9.55078,2.98828c-0.59766,-2.98828 -1.78906,-4.78125 -4.17578,-5.37891c0,4.78125 0,9.55859 0,14.33984c5.96875,0.59766 10.14453,1.79297 11.9375,4.18359c2.38672,2.39063 2.98438,5.37891 2.98438,9.5625c0,4.17969 -1.19531,8.36328 -4.17969,11.94922c-2.38672,3.58594 -6.56641,5.97656 -11.33984,7.17188c0,2.39063 0,4.77734 0,7.16797c-1.79297,0 -3.58203,0.59766 -5.37109,0.59766c0,-2.39062 0,-4.17969 0,-6.57031c-4.17969,0 -7.76172,-0.59766 -10.14844,-2.98828c-2.38672,-2.39062 -4.17969,-5.97656 -5.37109,-10.16016c2.98438,-0.59766 6.56641,-1.79297 9.55078,-2.39062c0.59375,1.79297 1.19141,3.58594 2.38672,4.78125c2.38672,0.59766 3.58203,1.79297 4.77344,1.79297zM189.99219,104.83203c-1.19141,0.59766 -2.38672,1.79297 -3.58203,2.98828c-0.59375,1.19531 -1.19141,2.39063 -1.19141,4.17969c0,1.19531 0.59766,2.39063 1.19141,3.58594c0.59766,1.19531 1.79297,1.79297 3.58203,2.39062c0,-4.78125 0,-8.96094 0,-13.14453zM195.36328,143.07422c1.79297,-0.59766 3.58203,-1.79297 4.77734,-2.98828c1.19141,-1.79297 1.78906,-2.98828 1.78906,-5.37891c0,-1.79297 -0.59766,-2.98437 -1.19141,-4.17969c-1.19531,-1.19531 -2.39062,-1.79297 -4.77734,-1.79297c-0.59766,4.77734 -0.59766,9.55859 -0.59766,14.33984zM195.36328,143.07422" fill="#ffffff"></path><g clip-path="url(#clip-4)"><path d="M337.42188,184.30469c0,8.96484 -7.16406,13.74609 -16.11719,11.35547c-84.75391,-19.12109 -169.51172,27.48438 -254.86328,8.96094c-8.35937,-1.79297 -15.51953,-11.35156 -15.51953,-19.71875v20.91406c3.58203,4.18359 8.95313,7.17188 13.72656,8.36719c2.38672,0.59766 4.17969,0.59766 6.56641,1.19531c12.53516,2.39063 25.66406,3.58594 39.99219,3.58594c17.90625,0 36.40625,-1.79297 54.3125,-4.18359c8.35938,-1.19531 16.11719,-2.39062 24.47266,-3.58594c1.79297,0 3.58203,-0.59766 5.37109,-0.59766h0.59766c7.76172,-1.19531 15.51953,-2.39062 23.27734,-3.58594c19.10156,-2.98828 38.79687,-5.37891 57.89844,-5.37891c13.13281,0 25.07031,1.19531 36.41016,2.98828c2.38672,0.59766 4.17578,0.59766 5.96875,1.19531c1.78906,0.59766 3.58203,0.59766 5.96875,0.59766c4.77344,0 8.95313,-1.19531 11.9375,-3.58594zM337.42188,184.30469" fill-opacity="0.2" fill="#40596b"></path></g><g clip-path="url(#clip-5)"><path d="M337.42188,241.07422c0,8.96094 -7.16406,13.74219 -16.11719,11.35156c-84.75391,-19.12109 -169.51172,27.48828 -254.86328,8.96484c-8.35937,-1.79297 -15.51953,-11.35547 -15.51953,-20.31641v20.91406c3.58203,4.18359 8.95313,7.16797 13.72656,8.36328c2.38672,0.59766 4.17969,0.59766 6.56641,1.19531c12.53516,2.39063 25.66406,3.58594 39.99219,3.58594c17.90625,0 36.40625,-1.79297 54.3125,-4.18359c8.35938,-1.19531 16.11719,-2.39062 24.47266,-3.58203c1.79297,0 3.58203,-0.59766 5.37109,-0.59766h0.59766c7.76172,-1.19531 15.51953,-2.39062 23.27734,-3.58594c19.10156,-2.98828 38.79687,-5.37891 57.89844,-5.37891c13.13281,0 25.07031,1.19531 36.41016,2.98828c2.38672,0.59766 4.17578,0.59766 5.96875,1.19531c1.78906,0.59766 3.58203,0.59766 5.96875,0.59766c4.77344,0 8.95313,-1.19531 11.9375,-3.58594zM337.42188,241.07422" fill-opacity="0.2" fill="#40596b"></path></g><g clip-path="url(#clip-6)"><path d="M277.44922,118.79297c0,0.54688 -0.02734,1.09375 -0.07812,1.64063c-0.05469,0.54297 -0.13672,1.08594 -0.24219,1.62109c-0.10547,0.53906 -0.23828,1.07031 -0.39844,1.59375c-0.16016,0.52344 -0.34375,1.03906 -0.55469,1.54687c-0.20703,0.50391 -0.44141,1 -0.69922,1.48438c-0.26172,0.48047 -0.54297,0.94922 -0.84766,1.40625c-0.30078,0.45703 -0.62891,0.89453 -0.97656,1.32031c-0.34766,0.42188 -0.71484,0.82813 -1.10156,1.21484c-0.38672,0.38672 -0.79297,0.75391 -1.21484,1.10156c-0.42578,0.34766 -0.86328,0.67578 -1.32031,0.98047c-0.45703,0.30078 -0.92578,0.58203 -1.41016,0.84375c-0.48047,0.25781 -0.97656,0.49219 -1.48047,0.69922c-0.50781,0.21094 -1.02344,0.39453 -1.54687,0.55469c-0.52344,0.16016 -1.05469,0.29297 -1.59375,0.39844c-0.53516,0.10547 -1.07812,0.1875 -1.62109,0.24219c-0.54687,0.05078 -1.09375,0.07813 -1.64062,0.07813c-0.54687,0 -1.09375,-0.02734 -1.64062,-0.07812c-0.54687,-0.05469 -1.08594,-0.13672 -1.625,-0.24219c-0.53516,-0.10547 -1.06641,-0.23828 -1.58984,-0.39844c-0.52734,-0.16016 -1.03906,-0.34375 -1.54688,-0.55469c-0.50781,-0.20703 -1,-0.44141 -1.48437,-0.69922c-0.48438,-0.26172 -0.95313,-0.54297 -1.40625,-0.84375c-0.45703,-0.30469 -0.89844,-0.63281 -1.32031,-0.98047c-0.42187,-0.34766 -0.82812,-0.71484 -1.21484,-1.10156c-0.39062,-0.38672 -0.75781,-0.79297 -1.10547,-1.21484c-0.34766,-0.42578 -0.67187,-0.86328 -0.97656,-1.32031c-0.30469,-0.45703 -0.58594,-0.92578 -0.84375,-1.40625c-0.25781,-0.48438 -0.49219,-0.98047 -0.70312,-1.48438c-0.20703,-0.50781 -0.39453,-1.02344 -0.55078,-1.54687c-0.16016,-0.52344 -0.29297,-1.05469 -0.39844,-1.59375c-0.10937,-0.53516 -0.1875,-1.07813 -0.24219,-1.62109c-0.05469,-0.54687 -0.08203,-1.09375 -0.08203,-1.64062c0,-0.54687 0.02734,-1.09375 0.08203,-1.64062c0.05469,-0.54687 0.13281,-1.08594 0.24219,-1.625c0.10547,-0.53516 0.23828,-1.06641 0.39844,-1.58984c0.15625,-0.52734 0.34375,-1.03906 0.55078,-1.54687c0.21094,-0.50781 0.44531,-1 0.70313,-1.48437c0.25781,-0.48437 0.53906,-0.95312 0.84375,-1.40625c0.30469,-0.45703 0.62891,-0.89844 0.97656,-1.32031c0.34766,-0.42188 0.71484,-0.82813 1.10547,-1.21484c0.38672,-0.38672 0.79297,-0.75781 1.21484,-1.10547c0.42188,-0.34766 0.86328,-0.67187 1.32031,-0.97656c0.45312,-0.30469 0.92187,-0.58594 1.40625,-0.84375c0.48437,-0.25781 0.97656,-0.49219 1.48437,-0.70312c0.50781,-0.20703 1.01953,-0.39453 1.54688,-0.55078c0.52344,-0.16016 1.05469,-0.29297 1.58984,-0.39844c0.53906,-0.10937 1.07813,-0.1875 1.625,-0.24219c0.54688,-0.05469 1.09375,-0.08203 1.64063,-0.08203c0.54688,0 1.09375,0.02734 1.64063,0.08203c0.54297,0.05469 1.08594,0.13281 1.62109,0.24219c0.53906,0.10547 1.07031,0.23828 1.59375,0.39844c0.52344,0.15625 1.03906,0.34375 1.54688,0.55078c0.50391,0.21094 1,0.44531 1.48047,0.70312c0.48438,0.25781 0.95313,0.53906 1.41016,0.84375c0.45703,0.30469 0.89453,0.62891 1.32031,0.97656c0.42187,0.34766 0.82812,0.71875 1.21484,1.10547c0.38672,0.38672 0.75391,0.79297 1.10156,1.21484c0.34766,0.42187 0.67578,0.86328 0.97656,1.32031c0.30469,0.45313 0.58594,0.92188 0.84766,1.40625c0.25781,0.48438 0.49219,0.97656 0.69922,1.48438c0.21094,0.50781 0.39453,1.01953 0.55469,1.54688c0.16016,0.52344 0.29297,1.05469 0.39844,1.58984c0.10547,0.53906 0.1875,1.07813 0.24219,1.625c0.05078,0.54688 0.07813,1.09375 0.07813,1.64063zM277.44922,118.79297" fill="#ef4444"></path></g><g clip-path="url(#clip-7)"><path d="M141.25781,135.52344c0,0.55078 -0.02734,1.09375 -0.07812,1.64062c-0.05469,0.54688 -0.13672,1.08594 -0.24219,1.625c-0.10547,0.53516 -0.23828,1.06641 -0.39844,1.58984c-0.16016,0.52734 -0.34375,1.04297 -0.55469,1.54688c-0.20703,0.50781 -0.44141,1 -0.69922,1.48438c-0.25781,0.48438 -0.54297,0.95313 -0.84375,1.40625c-0.30469,0.45703 -0.63281,0.89844 -0.98047,1.32031c-0.34766,0.42188 -0.71484,0.82813 -1.10156,1.21484c-0.38672,0.39063 -0.79297,0.75781 -1.21484,1.10547c-0.42578,0.34766 -0.86328,0.67188 -1.32031,0.97656c-0.45703,0.30469 -0.92578,0.58594 -1.40625,0.84375c-0.48437,0.25781 -0.98047,0.49219 -1.48437,0.70313c-0.50781,0.20703 -1.02344,0.39453 -1.54687,0.55078c-0.52344,0.16016 -1.05469,0.29297 -1.59375,0.39844c-0.53516,0.10937 -1.07812,0.1875 -1.62109,0.24219c-0.54687,0.05469 -1.09375,0.08203 -1.64062,0.08203c-0.54687,0 -1.09375,-0.02734 -1.64062,-0.08203c-0.54297,-0.05469 -1.08594,-0.13281 -1.625,-0.24219c-0.53516,-0.10547 -1.06641,-0.23828 -1.58984,-0.39844c-0.52344,-0.15625 -1.03906,-0.34375 -1.54687,-0.55078c-0.50781,-0.21094 -1,-0.44531 -1.48437,-0.70312c-0.48437,-0.25781 -0.95312,-0.53906 -1.40625,-0.84375c-0.45703,-0.30469 -0.89453,-0.62891 -1.32031,-0.97656c-0.42187,-0.34766 -0.82812,-0.71484 -1.21484,-1.10547c-0.38672,-0.38672 -0.75781,-0.79297 -1.10547,-1.21484c-0.34375,-0.42187 -0.67187,-0.86328 -0.97656,-1.32031c-0.30469,-0.45312 -0.58594,-0.92187 -0.84375,-1.40625c-0.25781,-0.48437 -0.49219,-0.97656 -0.70312,-1.48437c-0.20703,-0.50391 -0.39062,-1.01953 -0.55078,-1.54687c-0.16016,-0.52344 -0.29297,-1.05469 -0.39844,-1.58984c-0.10937,-0.53906 -0.1875,-1.07812 -0.24219,-1.625c-0.05469,-0.54687 -0.08203,-1.08984 -0.08203,-1.64062c0,-0.54688 0.02734,-1.09375 0.08203,-1.63672c0.05469,-0.54687 0.13281,-1.08984 0.24219,-1.625c0.10547,-0.53906 0.23828,-1.07031 0.39844,-1.59375c0.16016,-0.52344 0.34375,-1.03906 0.55078,-1.54687c0.21094,-0.50391 0.44531,-1 0.70313,-1.48047c0.25781,-0.48437 0.53906,-0.95312 0.84375,-1.41016c0.30469,-0.45703 0.63281,-0.89453 0.97656,-1.31641c0.34766,-0.42578 0.71875,-0.83203 1.10547,-1.21875c0.38672,-0.38672 0.79297,-0.75391 1.21484,-1.10156c0.42578,-0.34766 0.86328,-0.67187 1.32031,-0.97656c0.45313,-0.30469 0.92188,-0.58594 1.40625,-0.84375c0.48438,-0.26172 0.97656,-0.49219 1.48438,-0.70313c0.50781,-0.21094 1.02344,-0.39453 1.54688,-0.55469c0.52344,-0.15625 1.05469,-0.28906 1.58984,-0.39844c0.53906,-0.10547 1.08203,-0.1875 1.625,-0.24219c0.54688,-0.05078 1.09375,-0.07812 1.64063,-0.07812c0.54688,0 1.09375,0.02734 1.64063,0.07813c0.54297,0.05469 1.08594,0.13672 1.62109,0.24219c0.53906,0.10937 1.07031,0.24219 1.59375,0.39844c0.52344,0.16016 1.03906,0.34375 1.54688,0.55469c0.50391,0.21094 1,0.44141 1.48438,0.70313c0.48047,0.25781 0.94922,0.53906 1.40625,0.84375c0.45703,0.30469 0.89453,0.62891 1.32031,0.97656c0.42188,0.34766 0.82813,0.71484 1.21484,1.10156c0.38672,0.38672 0.75391,0.79297 1.10156,1.21875c0.34766,0.42188 0.67578,0.85938 0.98047,1.31641c0.30078,0.45703 0.58594,0.92578 0.84375,1.41016c0.25781,0.48047 0.49219,0.97656 0.69922,1.48047c0.21094,0.50781 0.39453,1.02344 0.55469,1.54688c0.16016,0.52344 0.29297,1.05469 0.39844,1.59375c0.10547,0.53516 0.1875,1.07813 0.24219,1.625c0.05078,0.54297 0.07812,1.08984 0.07812,1.63672zM141.25781,135.52344" fill="#ef4444"></path></g><g fill="#ffffff"><g transform="translate(119.76526,140.40374)"><g><path d="M3.90625,-2.23437h4.82813v2.23438h-7.9375v-2.07812l4.79688,-6.90625h-4.79687v-2.25h7.9375v2.07813zM3.90625,-2.23437"></path></g></g></g><g fill="#ffffff"><g transform="translate(256.34893,121.85374)"><g><path d="M8.29688,-11.23437v2.1875h-4.5625v2.375h3.42188v2.125h-3.42187v4.54688h-2.75v-11.23437zM8.29688,-11.23437"></path></g></g></g></g></g></svg>